<?xml version="1.0" encoding="UTF-8" standalone="no"?>
<svg
   viewBox="0 0 329.4 329"
   version="1.1"
   id="svg14"
   sodipodi:docname="msi-logo.svg"
   width="329.39999"
   height="329"
   inkscape:version="1.2.1 (9c6d41e410, 2022-07-14)"
   xmlns:inkscape="http://www.inkscape.org/namespaces/inkscape"
   xmlns:sodipodi="http://sodipodi.sourceforge.net/DTD/sodipodi-0.dtd"
   xmlns="http://www.w3.org/2000/svg"
   xmlns:svg="http://www.w3.org/2000/svg"
   xmlns:rdf="http://www.w3.org/1999/02/22-rdf-syntax-ns#"
   xmlns:cc="http://creativecommons.org/ns#"
   xmlns:dc="http://purl.org/dc/elements/1.1/">
  <defs
     id="defs18" />
  <sodipodi:namedview
     id="namedview16"
     pagecolor="#ffffff"
     bordercolor="#666666"
     borderopacity="1.0"
     inkscape:showpageshadow="2"
     inkscape:pageopacity="0.0"
     inkscape:pagecheckerboard="true"
     inkscape:deskcolor="#d1d1d1"
     showgrid="false"
     inkscape:zoom="1.8032298"
     inkscape:cx="227.36981"
     inkscape:cy="190.21425"
     inkscape:window-width="1920"
     inkscape:window-height="1011"
     inkscape:window-x="0"
     inkscape:window-y="32"
     inkscape:window-maximized="1"
     inkscape:current-layer="svg14" />
  <title
     id="title2">msi logo symbol</title>
  <path
     d="m 299.52177,55.86 c -30.68,-21.13 -86.75,-47.21 -133.46,-55.73 a 9.27,9.27 0 0 0 -3.07,0 C 117.70177,8.5 62.431769,34.05 29.701769,55.86 a 4.39,4.39 0 0 0 -1.7,3.24 c -0.17,67.15 11.93,120 28.46,159.53 10.74,25.4 28.12,54.71 51.130001,75.34 a 176.52,176.52 0 0 0 55.56,34.77 4.73,4.73 0 0 0 3.07,0 174.62,174.62 0 0 0 55.56,-34.77 c 23.18,-20.62 40.57,-51.3 51.13,-75.34 18.79,-45.5 28.79,-98.85 28.48,-159.53 a 4.09,4.09 0 0 0 -1.87,-3.24"
     style="fill:#a7a9ab"
     id="path4" />
  <path
     d="m 265.77177,215.23 c -7.67,17.73 -24.37,50.62 -49.09,72.61 a 168,168 0 0 1 -50.79,32.55 2.16,2.16 0 0 1 -1,0.17 2.9,2.9 0 0 1 -1.19,-0.17 174.25,174.25 0 0 1 -50.79,-32.38 C 93.451769,270.5 76.071769,244.5 63.621769,215.23 c -18.41,-43.46 -27.27,-94.08 -27.61,-152.2 a 3,3 0 0 1 1.19,-2.39 C 74.701769,36.27 125.32177,14.96 164.01177,7.8 h 1 a 312.86,312.86 0 0 1 52.84,15.34 389.56,389.56 0 0 1 74.48,37.16 2.48,2.48 0 0 1 1.19,2.22 c -0.17,57.44 -9.37,108.06 -27.78,152.72"
     style="fill:#e52629"
     id="path6" />
  <path
     d="m 211.91177,72.57 a 26.46,26.46 0 0 1 3.58,0.68 c 1.36,0.85 1.36,2.73 2.22,4.26 -5.28,0.85 -7,-2.9 -9.54,-5.8 a 26.65,26.65 0 0 1 3.75,0.85 m -105,127.83 A 68.35,68.35 0 0 1 99.251769,132.55 C 120.25177,81.42 176.80177,95.39 182.25177,97.44 a 9.56,9.56 0 0 1 8,-9.72 12,12 0 0 1 4.26,-0.17 c 0.34,0 0.68,0.34 0.34,0.34 -5.45,1.36 -9.54,4.26 -9.37,9.37 0.17,4.77 5.11,8.18 9.2,9 v 0 a 8.11,8.11 0 0 0 5.62,-0.85 h 0.17 a 5.76,5.76 0 0 1 2,-1 8.73,8.73 0 0 1 5.11,-0.17 6.68,6.68 0 0 0 2.22,0.85 c 0.51,0 1.36,-0.85 2,-0.85 3.24,-0.17 10.4,2.39 10.57,4.09 0.17,1.19 -1.7,2.56 -2.73,3.41 a 12.26,12.26 0 0 1 -3.58,2 c -0.34,0.17 -0.17,0.17 0,0.17 5.62,-0.68 15.85,-4.43 14.32,2.56 l -0.51,1.53 a 0.17,0.17 0 0 0 0.17,0.17 c 5.62,-1.87 7.33,-6.82 6.48,-13.46 0,-0.17 -0.17,-0.17 -0.17,0 a 7.27,7.27 0 0 1 -1.87,2 v 0 c 0,-1.87 0.17,-4.6 -1,-6 h -0.17 a 5.66,5.66 0 0 1 -3.75,6.31 54,54 0 0 0 -6.82,-9.54 h -0.17 a 10.49,10.49 0 0 1 -0.34,3.24 c 0,0 -0.17,0.17 -0.17,0 a 5,5 0 0 0 -4.26,-3.24 c -1.36,-0.17 -2.73,0.17 -4.26,0 -2,-0.34 -4.26,-1.7 -4.43,-3.24 -0.17,-2.39 4.26,-3.58 6.48,-4.09 a 18.13,18.13 0 0 1 1.53,4.26 0.17,0.17 0 0 0 0.17,0.17 16.15,16.15 0 0 1 9.37,-4.09 c 1,0 3.24,0.34 3.58,1 0.85,1.7 -1.19,3.58 -1.87,4.26 -1.19,1.19 -0.68,1 -0.51,1 a 23.45,23.45 0 0 0 8,-5.28 13.19,13.19 0 0 1 1.7,8 0.17,0.17 0 0 0 0.17,0.17 h 0.17 c 2.73,-3.07 2.9,-7.67 2.56,-13 a 14.68,14.68 0 0 1 6.82,4.77 c 0.17,0.17 0.34,0.17 0.17,0 a 19.63,19.63 0 0 0 -6.31,-6.65 16.18,16.18 0 0 1 -2.9,-1.7 c -0.68,-0.68 -1.53,-2.9 -2.39,-3.07 -1.19,-0.17 -2.56,1 -3.92,1.19 -2.39,0.17 -3.58,-1.53 -4.09,-3.75 -5.8,1.7 -8,-1.87 -9.2,-6.14 l -0.51,-2.56 c -0.51,-1 -2.73,-2 -3.92,-2.56 a 11.78,11.78 0 0 0 -5.45,-0.68 48.81,48.81 0 0 1 -4.77,1.19 27.5,27.5 0 0 1 -13.29,-3.92 97.85,97.85 0 0 1 -29,-23.86 c -0.34,-0.34 -0.34,0 -0.34,0.17 a 63.16,63.16 0 0 0 25.91,29.49 91,91 0 0 1 -34.43,-17.21 c -0.17,-0.17 -0.51,-0.34 -0.17,0.17 a 87.23,87.23 0 0 0 15.85,15.85 l 0.17,0.17 c -8.52,3.41 -21.13,4.77 -31.36,7.16 -0.51,0.17 -0.51,0.34 -0.17,0.34 a 123.11,123.11 0 0 1 17.73,2.39 h -0.17 c -23.18,0.85 -43.29,7.67 -57.270001,20.62 -0.17,0.17 0,0.34 0.17,0.17 a 82.46,82.46 0 0 1 10.230001,-3.75 c -3.41,3.24 -7,6.48 -10.060001,9.89 v 0 c -4.6,5.11 -6.65,4.77 -8.86,1.19 -1.7,-1.87 -1.7,-7.84 0.68,-9 2.9,0.85 4.77,-1.53 4.43,-4.26 -0.51,-3.75 -4.77,-6.31 -7.33,-8 -0.34,-0.17 -0.51,-0.17 -0.34,0 1.36,1.36 3.24,2.73 3.58,4.77 0.17,0.85 0.17,2.39 -0.68,2.73 -1.36,0.34 -2,-1 -3.41,-0.85 -1.19,0.17 -1.7,2.22 -1.87,3.58 a 26.67,26.67 0 0 0 -0.34,5.28 c 0,0.85 0.34,2.22 -0.34,2.9 -0.85,-0.34 -1,-1.36 -1.36,-2.22 a 17.09,17.09 0 0 1 -2.56,-10.06 c 0.51,-0.17 1.53,0 2,-0.34 a 8.31,8.31 0 0 0 -2.9,-5.8 9.66,9.66 0 0 0 -8.69,-2.39 c -0.17,0 -0.17,0.17 0,0.17 2.22,0.34 6.31,0.85 6.48,2.9 0,0.85 -1,2 -1.36,2.73 a 13.24,13.24 0 0 0 2.22,11.76 c 1.19,1.53 2.73,2.9 1.7,5.62 a 18.92,18.92 0 0 1 -7.84,-4.77 c -0.85,-1.53 -0.85,-3.24 -2,-4.43 a 11.3,11.3 0 0 0 -12.78,-2.9 c -0.17,0 -0.17,0.17 0,0.17 3.58,-0.17 6.82,0.17 8.18,2.56 a 13.15,13.15 0 0 1 1.19,4.43 c 0,0.68 -0.17,1.53 0.17,2 0.51,1 2.39,0.85 3.41,1.36 1.36,0.85 2.22,2.9 3.75,4.26 a 9.45,9.45 0 0 0 1.36,1 c 2.39,1.36 7.33,2.56 9.2,4.43 2.9,2.9 1.36,7.84 0.34,11.08 a 32.54,32.54 0 0 0 -2.12,10.86 c 0,0.17 0.17,0.34 0.17,0.17 a 42.41,42.41 0 0 1 9.37,-8 130.35,130.35 0 0 0 -8.35,22.33 c -1.87,7 -4.77,18.58 -0.34,25.23 0,0.17 0.17,0.17 0.17,0 0.34,-2.22 0.34,-4.77 1.87,-5.8 a 78.92,78.92 0 0 0 21.480001,32 c 0.85,-0.17 1,-0.34 0.85,-0.68"
     style="fill:#ffffff"
     id="path8" />
  <path
     d="m 137.43177,140.92 c 33.24,9.72 62,-10.74 68,-18.24 1,-1.19 0.68,-1.36 -0.34,-0.68 a 75.62,75.62 0 0 1 -16.19,10.06 c -24.2,11.93 -49.77,5.62 -50.45,4.09 -0.68,-1.19 1.7,-1 1.7,-1 51.81,-1.7 62,-24.37 61.87,-25.23 0,-0.85 -0.85,0.17 -0.85,0.17 -13.47,17.53 -48.4,19.41 -48.4,19.41 -9.2,0.85 -16.7,-0.68 -21.31,-4.94 a 13.23,13.23 0 0 1 -2.76,-4.06 h -0.17 a 19.13,19.13 0 0 1 -2.73,3.75 c -1.19,1.53 -3.07,2.22 -4.26,1.36 -3.75,-2.56 6.31,-16.87 14.32,-23.18 0.34,-0.34 1.53,-1.36 0.85,-1 a 60.83,60.83 0 0 0 -35.45,41.08 62.85,62.85 0 0 0 -2.220001,16.87 73.16,73.16 0 0 0 2.000001,17.21 98.15,98.15 0 0 0 9.89,25.74 c 0.34,0.51 0.34,0.17 0.51,0.17 a 33.14,33.14 0 0 0 2.9,-7.16 50.21,50.21 0 0 1 2.9,-8.52 c 3.24,-5.28 20.45,-3.92 15.68,-7.5 a 25.68,25.68 0 0 1 -3.92,-3.58 77.33,77.33 0 0 1 -6.65,-8.18 39.13,39.13 0 0 1 -7.67,-20.62 c 0,-0.34 0.17,-0.34 0.34,0 a 42.13,42.13 0 0 0 22,24.2 62.46,62.46 0 0 0 17.39,4.6 c 0.51,0 0.51,-0.17 0,-0.17 -12.78,-2.9 -25.57,-11.59 -30.85,-22 0,0 -2.22,-3.41 -0.85,-4.09 1.37,-0.68 3.58,2.22 5.8,4.26 a 42.21,42.21 0 0 0 16.19,9 56.77,56.77 0 0 0 27.78,0.68 c 0.34,0 0.34,-0.17 0,-0.17 a 59.4,59.4 0 0 1 -23.78,-2.22 c -15.51,-6 -20.11,-13.64 -18.92,-15 1.53,-1.7 19.6,15.51 49.09,2.56 a 72,72 0 0 0 16.83,-10.57 c 0.34,-0.34 0.17,-0.68 0,-0.51 -9.89,5.28 -19.43,10.74 -33.92,11.59 a 45.7,45.7 0 0 1 -25.4,-6.14 c -1.19,-0.85 -1.7,-1.36 -1.19,-1.87 0.68,-0.85 2.22,-0.17 2.22,-0.17"
     style="fill:#ffffff"
     id="path10" />
  <path
     d="m 254.52177,191.02 a 7.65,7.65 0 0 1 -5.11,1.19 16.43,16.43 0 0 0 -4.09,0 0.89,0.89 0 0 0 -0.68,0.34 v 0 c -2.39,2.22 -3.75,1.19 -3.58,-0.34 a 13.67,13.67 0 0 1 0.85,-3.58 33.9,33.9 0 0 0 2.9,-6.14 8.75,8.75 0 0 0 -1,-5.45 c -0.34,-0.85 -1.53,-4.09 2.56,-3.92 v 0 a 1.94,1.94 0 0 0 1.36,-0.51 10.84,10.84 0 0 0 4.26,-9.2 c 0,-0.17 -0.17,-0.34 -0.17,-0.17 a 8.45,8.45 0 0 1 -3.92,3.41 25.66,25.66 0 0 0 -3.75,1.87 3.57,3.57 0 0 0 -0.68,1 c -1.19,2.9 -2.56,1.7 -2.73,1.36 a 11.75,11.75 0 0 0 -3.75,-3.92 26,26 0 0 0 -15.17,-3.07 c -2.56,0.17 -5.11,0.51 -7.5,0.85 a 25.62,25.62 0 0 1 -3.41,0.34 c -4.77,0.17 -1.53,-5.28 2.39,-6.31 a 8.76,8.76 0 0 1 8.35,1.87 c 0.17,0.17 0.34,0.17 0.34,0 -1.53,-3.75 -8,-17 -30.85,-15.17 -0.34,0 -0.34,0.17 -0.17,0.34 a 49.13,49.13 0 0 1 13.64,4.43 c 1.36,0.68 4.09,2.73 3.41,5.62 a 16,16 0 0 1 -5.8,6.82 7.7,7.7 0 0 1 -6.14,-0.51 15.39,15.39 0 0 1 -7.84,-11.93 c 0,0 -0.17,-0.34 -0.17,0 a 13.9,13.9 0 0 0 10.4,16.7 2.9,2.9 0 0 0 1.19,0.17 c 2.22,0.51 2,4.43 1.53,6.31 -0.51,2.22 -3.92,2.39 -6.48,2 a 14.64,14.64 0 0 1 -6.48,-2.73 33.19,33.19 0 0 1 -7.67,-8.52 c -0.34,-0.51 -0.51,-0.51 -0.34,0 a 26.27,26.27 0 0 0 9,11.59 25.31,25.31 0 0 0 17.39,5.11 48.11,48.11 0 0 0 11.93,-2.56 c 0.34,-0.17 0.34,-0.34 0,-0.34 -5.28,0 -11.93,0 -13.29,-3.58 -0.51,-1.19 -0.85,-6.31 1.87,-6.14 a 51.44,51.44 0 0 0 11.42,-0.68 31.92,31.92 0 0 1 10.57,1.7 11.82,11.82 0 0 1 6.14,4.6 c 2.73,3.92 2,10.74 1,16.36 a 83.11,83.11 0 0 1 -4.43,14 c -3.58,9 -10.91,22.84 -16.7,28 a 64.8,64.8 0 0 1 -25.74,11.93 56.93,56.93 0 0 1 -13,2 c -10.4,0.51 -18.75,-1 -24.2,-5.8 a 24.6,24.6 0 0 1 -6,-9 c -1.7,-8.35 2.9,-10.74 14.15,-7.33 3.58,1 5.8,-2 8.52,-2.22 1.36,0 2.39,0.85 3.58,0.51 0.85,-0.17 1.53,-1.7 2.22,-2.73 a 9.13,9.13 0 0 1 2.56,-2.56 c 3.24,-1.87 6.65,0.34 8.86,1.7 0.17,0.17 0.34,0 0.34,-0.17 a 11.85,11.85 0 0 0 -14,-3.58 c -1,0.51 -2,1.87 -3.24,2.73 a 13.55,13.55 0 0 1 -7.33,0.68 4.28,4.28 0 0 1 -2.56,-0.34 c 0.68,-3.41 3.92,-3.41 6.31,-4.94 a 12.79,12.79 0 0 0 7,-10.06 3.41,3.41 0 0 1 0.34,-2.22 c 0.51,-0.68 1.7,-0.68 2.9,-0.51 a 20.86,20.86 0 0 1 4.6,1.53 c 0.34,0.17 -0.51,-0.68 -0.85,-1 -4.43,-3.58 -12.61,-1.87 -14.49,2 -0.34,0.68 1.53,0.68 1.7,1.53 0.17,0.85 -1.19,2.22 -1.87,2.9 a 25.21,25.21 0 0 1 -5.28,4.26 c -1,0.68 -1.87,1.7 -3.07,1.7 a 19.88,19.88 0 0 1 2.9,-5.28 c 0.68,-1.36 2.39,-4.94 1.53,-6.31 -0.68,-0.85 -3.58,-0.34 -3.92,-1.53 -0.34,-0.85 0.34,-1.87 0.85,-2.39 a 12.76,12.76 0 0 1 6,-2.73 c 0.34,0 0.17,-0.17 -0.17,-0.17 -3.92,0.17 -10.06,1.53 -11.59,4.43 a 3.69,3.69 0 0 0 1.36,5.11 2.42,2.42 0 0 0 1,0.34 c 0.85,3.07 -0.85,8.35 -4.77,8.86 -5.28,0.68 -9.2,-2.9 -7,-12.1 0,0 0,-0.34 -0.17,-0.17 l -0.51,0.51 c -0.34,0.34 -0.51,0.68 -0.85,0.85 -3.58,3.24 -11.42,8.18 -18.07,4.94 a 6.69,6.69 0 0 1 -3.07,-3.07 c -3.24,-7 4.09,-11.93 9.54,-10.91 2.39,0.34 4.43,2 4.09,4.6 a 3.71,3.71 0 0 1 -3.92,2.73 5.81,5.81 0 0 1 -3.24,-1.19 c -1,-1 -1.19,-2 -1.36,-1.7 -1.87,8.18 9.54,7.67 13.46,3.75 a 10.52,10.52 0 0 0 2,-13.81 10,10 0 0 0 -9.2,-3.92 25,25 0 0 0 -10.4,2.9 c -3.07,2.39 -3.75,7 -4.6,10.91 a 21.12,21.12 0 0 1 -4.94,10.4 c 0,0.17 0,0.17 0.17,0.17 a 5.94,5.94 0 0 1 4.77,1.7 c 2.56,2.39 -1.87,0.51 -4.77,2.22 h 0.01 a 21.55,21.55 0 0 0 -9.89,16.87 c 0,0.34 0.17,0.68 0.34,0.34 a 16.82,16.82 0 0 1 8.18,-6 40.12,40.12 0 0 0 7.5,-2.9 3.68,3.68 0 0 0 1.53,-2.39 v 0 c 0.51,-2.22 2.73,-2.56 2.56,-0.51 -0.17,3.07 -2.39,5.45 -1,9 1.36,3.75 5.28,5.45 8.69,7.67 0.68,0.51 2.56,2 -2.73,3.75 h -0.34 c -0.17,0 -0.17,0.17 -0.34,0.17 -0.17,0 -0.17,0 -0.34,0.17 a 18.39,18.39 0 0 0 -8.35,14.32 c 0,0.34 0.17,0.51 0.17,0.34 a 14.18,14.18 0 0 1 7,-5.11 40.69,40.69 0 0 0 6.31,-2.56 2.79,2.79 0 0 0 1.19,-1.87 v 0 c 1.53,-4.26 2.9,-2.39 3.07,-1 a 10.76,10.76 0 0 0 1.36,3.92 c 1.7,2.73 5.8,2.39 9.72,3.07 1.36,0.17 2.9,1.36 -0.34,3.07 v 0 a 1.7,1.7 0 0 0 -0.85,0.68 17.59,17.59 0 0 0 -4.77,15.34 c 0,0.34 0.17,0.51 0.34,0.17 a 15,15 0 0 1 5.45,-6.31 22.89,22.89 0 0 0 5.28,-3.75 2.68,2.68 0 0 0 0.68,-2.22 v 0 c -0.17,-4.09 2,-3.41 2.73,-2.39 1.19,1.87 2,3.92 4.43,4.77 a 10.84,10.84 0 0 0 6.14,-0.85 40.59,40.59 0 0 1 4.43,-0.85 c 2.56,-0.34 1.7,2 0.34,3.75 l -0.17,0.17 v 0.17 0 c -0.17,0.17 -0.17,0.34 -0.34,0.51 a 14.86,14.86 0 0 0 1,13.64 c 0.17,0.34 0.34,0.34 0.34,0 a 10.59,10.59 0 0 1 2.39,-6.65 21.66,21.66 0 0 0 3.07,-4.6 1.87,1.87 0 0 0 0,-1.36 v 0 -0.34 c -1.36,-3.92 0.68,-4.43 2.39,-3.92 a 13.19,13.19 0 0 0 8.86,0 22.84,22.84 0 0 0 6.31,-4.26 24.88,24.88 0 0 1 5.8,-4.43 c 1.53,-0.51 2.39,0.34 2,3.07 v 0 a 2.8,2.8 0 0 0 0.17,1.7 13.93,13.93 0 0 0 9.89,7.5 c 0.34,0 0.34,0 0.17,-0.17 a 10.22,10.22 0 0 1 -3.07,-5.62 22,22 0 0 0 -1.36,-4.77 c -0.17,-0.17 -0.34,-0.51 -0.51,-0.68 l -0.17,-0.17 v 0 c -0.17,-0.17 -0.34,-0.17 -0.51,-0.34 -2.73,-1.53 -1.7,-3.58 1,-4.26 5.62,-1.19 11.93,-2.56 14.83,-6.31 a 20.51,20.51 0 0 0 2.9,-8.18 54,54 0 0 1 2,-7.5 c 0.34,-1 0.68,-3.92 5.11,-0.34 v 0 a 3.25,3.25 0 0 0 1.7,0.85 13.8,13.8 0 0 0 11.71,-4.28 c 0.17,-0.17 0.17,-0.34 0,-0.34 a 10,10 0 0 1 -6.31,-0.34 25.87,25.87 0 0 0 -4.77,-1.53 h -0.68 c -5.45,1 -2.73,-2.22 -2.22,-2.9 1.53,-2.22 3.58,-3.92 5.11,-6.14 a 28.8,28.8 0 0 0 3.41,-11.25 c 0.17,-0.85 0.68,-3.07 5.11,-1.7 0.17,0.17 0.34,0.17 0.68,0.17 h 1 a 11,11 0 0 0 8,-6.14 c -0.34,0.68 -0.34,0.68 -0.51,0.68"
     style="fill:#ffffff"
     id="path12" />
  <metadata
     id="metadata247">
    <rdf:RDF>
      <cc:Work
         rdf:about="">
        <dc:title>msi logo symbol</dc:title>
      </cc:Work>
    </rdf:RDF>
  </metadata>
</svg>
