<?xml version="1.0" encoding="UTF-8" standalone="no"?>
<svg
   viewBox="0 0 329.00001 329"
   version="1.1"
   id="svg14"
   sodipodi:docname="msi-logo-symbolic.svg"
   inkscape:version="1.2.1 (9c6d41e410, 2022-07-14)"
   width="329"
   height="329"
   xmlns:inkscape="http://www.inkscape.org/namespaces/inkscape"
   xmlns:sodipodi="http://sodipodi.sourceforge.net/DTD/sodipodi-0.dtd"
   xmlns="http://www.w3.org/2000/svg"
   xmlns:svg="http://www.w3.org/2000/svg"
   xmlns:rdf="http://www.w3.org/1999/02/22-rdf-syntax-ns#"
   xmlns:cc="http://creativecommons.org/ns#"
   xmlns:dc="http://purl.org/dc/elements/1.1/">
  <defs
     id="defs18" />
  <sodipodi:namedview
     id="namedview16"
     pagecolor="#ffffff"
     bordercolor="#666666"
     borderopacity="1.0"
     inkscape:showpageshadow="2"
     inkscape:pageopacity="0.0"
     inkscape:pagecheckerboard="true"
     inkscape:deskcolor="#d1d1d1"
     showgrid="false"
     inkscape:zoom="1.275076"
     inkscape:cx="12.548272"
     inkscape:cy="112.93444"
     inkscape:window-width="1920"
     inkscape:window-height="1011"
     inkscape:window-x="0"
     inkscape:window-y="32"
     inkscape:window-maximized="1"
     inkscape:current-layer="svg14" />
  <title
     id="title2">msi logo symbol</title>
  <path
     id="path6"
     style="fill:#ffffff;fill-opacity:1"
     d="M 163.75012,7.80078 C 125.06017,14.96075 74.439365,36.27071 36.939451,60.64062 A 3.0000027,3 0 0 0 35.75,63.0293 c 0.34,58.11982 9.199438,108.74129 27.609395,152.20117 12.449981,29.26991 29.831107,55.26933 49.291065,72.7793 a 174.25016,174.25 0 0 0 50.78911,32.38085 2.9000026,2.9 0 0 0 1.1914,0.16993 2.1600019,2.16 0 0 0 1,-0.16993 168.00015,168 0 0 0 50.78911,-32.55078 c 24.71994,-21.98991 41.41991,-54.87943 49.08989,-72.60937 l -0.0293,0.01 c 18.40998,-44.65985 27.60932,-95.28088 27.77932,-152.7207 A 2.4800022,2.48 0 0 0 292.07054,60.30102 389.56035,389.56 0 0 0 217.59,23.14086 312.86028,312.86 0 0 0 164.75012,7.80102 Z m -2.50587,30.95899 c 0.0477,0.0136 0.11031,0.0556 0.19531,0.14062 a 97.850088,97.85 0 0 0 29.00003,23.85938 27.500025,27.5 0 0 0 13.29102,3.91992 48.810044,48.81 0 0 0 4.76955,-1.18946 11.780011,11.78 0 0 1 5.45117,0.67969 c 1.19,0.56 3.40992,1.56055 3.91992,2.56055 l 0.50976,2.55859 c 1.20001,4.27 3.39926,7.84063 9.19923,6.14063 0.51,2.22 1.69985,3.92 4.08986,3.75 1.36,-0.19 2.72992,-1.35946 3.91992,-1.18946 0.86,0.17 1.71065,2.39032 2.39062,3.07032 a 16.180015,16.18 0 0 0 2.90039,1.69922 19.630018,19.63 0 0 1 6.30861,6.65039 c 0.17,0.17 8e-5,0.17 -0.16992,0 a 14.680013,14.68 0 0 0 -6.81837,-4.76954 c 0.34,5.33 0.16945,9.93003 -2.56055,13 h -0.16992 a 0.17000015,0.17 0 0 1 -0.16992,-0.16992 13.190012,13.19 0 0 0 -1.70118,-8 23.450021,23.45 0 0 1 -8.00001,5.2793 c -0.16997,0 -0.68023,0.19 0.50977,-1 0.68,-0.68 2.7211,-2.55977 1.8711,-4.25977 -0.34001,-0.65997 -2.58008,-1 -3.58008,-1 a 16.150015,16.15 0 0 0 -9.37111,4.08985 0.17000015,0.17 0 0 1 -0.16992,-0.16992 18.130016,18.13 0 0 0 -1.5293,-4.25977 c -2.21997,0.51 -6.65044,1.69987 -6.48047,4.08984 0.17,1.54 2.42969,2.90024 4.42969,3.24024 1.53,0.17 2.90172,-0.17 4.26172,0 a 5.0000045,5 0 0 1 4.25978,3.24023 c 0,0.17 0.16992,0 0.16992,0 a 10.490009,10.49 0 0 0 0.33984,-3.24023 h 0.16992 a 54.000049,54 0 0 1 6.82032,9.53906 5.6600051,5.66 0 0 0 3.75001,-6.30859 h 0.16992 c 1.17,1.4 1,4.13 1,6 a 7.2700066,7.27 0 0 0 1.86914,-2 c 0,-0.17 0.16992,-0.17 0.16992,0 0.85,6.63997 -0.86047,11.58898 -6.48048,13.45898 A 0.17000015,0.17 0 0 1 229.60954,118 l 0.51173,-1.5293 c 1.53,-6.98997 -8.70035,-3.24054 -14.32033,-2.56054 -0.17,0 -0.34,7e-5 0,-0.16993 a 12.260011,12.26 0 0 0 3.58008,-2 c 1.03,-0.84997 2.89852,-2.22015 2.72852,-3.41015 -0.17,-1.7 -7.32837,-4.25985 -10.56837,-4.08985 -0.64,0 -1.49,0.84961 -2,0.84961 a 6.680006,6.68 0 0 1 -2.22071,-0.84961 8.7300079,8.73 0 0 0 -5.10938,0.16993 5.7600052,5.76 0 0 0 -2,1 h -0.16992 a 8.1100073,8.11 0 0 1 -5.6211,0.84961 c -4.09,-0.82 -9.02923,-4.23003 -9.19923,-9 -0.17,-5.11 3.91915,-8.00915 9.36915,-9.36915 0.34,0 1.6e-4,-0.33984 -0.33984,-0.33984 a 12.000011,12 0 0 0 -4.25977,0.16992 9.5600086,9.56 0 0 0 -8.00001,9.71875 c -5.44997,-2.04997 -62.00011,-16.01852 -83.000073,35.11133 a 68.350062,68.35 0 0 0 7.667973,67.83594 c -0.003,-0.007 0.005,-0.0102 0.002,-0.0176 v 0.0215 a 68.350062,68.35 0 0 1 -0.002,-0.004 c 0.13382,0.32548 -0.0161,0.49775 -0.84766,0.66406 a 78.920071,78.92 0 0 1 -21.480486,-32 c -1.529972,1.03 -1.529142,3.57883 -1.869142,5.79883 0,0.17 -0.16992,0.17 -0.16992,0 -4.429974,-6.64997 -1.530151,-18.2305 0.33985,-25.23047 a 130.35012,130.35 0 0 1 8.349608,-22.33008 42.410038,42.41 0 0 0 -9.371099,8 c 0,0.17 -0.16992,8e-5 -0.16992,-0.16992 a 32.540029,32.54 0 0 1 2.121092,-10.85937 c 1.020001,-3.24 2.560162,-8.18011 -0.33984,-11.08008 -1.870002,-1.87 -6.811206,-3.06969 -9.201178,-4.42969 a 9.4500085,9.45 0 0 1 -1.359382,-1 c -1.530001,-1.36 -2.390002,-3.40977 -3.750003,-4.25977 -1.020001,-0.51 -2.900153,-0.35937 -3.410153,-1.35937 -0.34,-0.47 -0.16993,-1.32 -0.16993,-2 a 13.150012,13.15 0 0 0 -1.189451,-4.43164 c -1.360002,-2.39 -4.599695,-2.72857 -8.179698,-2.5586 -0.17,0 -0.17,-0.16992 0,-0.16992 a 11.30001,11.3 0 0 1 12.779312,2.89844 c 1.150001,1.19 1.150001,2.90164 2.000002,4.43164 a 18.920017,18.92 0 0 0 7.839847,4.76953 c 1.030001,-2.71997 -0.509241,-4.09109 -1.699212,-5.62109 A 13.240012,13.24 0 0 1 74.660185,87.68935 c 0.36,-0.73 1.359381,-1.87851 1.359381,-2.72851 -0.17,-2.05 -4.258524,-2.56039 -6.478526,-2.90039 -0.17,0 -0.17,-0.16993 0,-0.16993 a 9.6600087,9.66 0 0 1 8.689458,2.38868 8.3100075,8.31 0 0 1 2.900403,5.80078 c -0.470001,0.34 -1.490031,0.16984 -2.000002,0.33984 a 17.090015,17.09 0 0 0 2.558592,10.06055 c 0.360001,0.86 0.511331,1.87875 1.361332,2.21875 0.68,-0.68 0.33984,-2.04844 0.33984,-2.89844 a 26.670024,26.67 0 0 1 0.33984,-5.28125 c 0.17,-1.36 0.679151,-3.41008 1.869152,-3.58008 1.409971,-0.15 2.050152,1.18961 3.410153,0.84961 0.850001,-0.34 0.849691,-1.87851 0.679691,-2.72851 -0.340001,-2.04 -2.220082,-3.41149 -3.580084,-4.77149 -0.17,-0.17 0.002,-0.17 0.341801,0 2.559972,1.69 6.818126,4.25003 7.328126,8 0.340001,2.73 -1.529711,5.11172 -4.429684,4.26172 -2.380002,1.16 -2.379692,7.13 -0.67969,9 2.210002,3.58 4.259404,3.91857 8.859378,-1.1914 3.060004,-3.41 6.650554,-6.64868 10.060554,-9.88868 a 82.460074,82.46 0 0 0 -10.230474,3.75 c -0.170001,0.17 -0.339921,8e-5 -0.169921,-0.16992 C 111.16946,85.10071 131.28111,78.27959 154.46104,77.42959 h 0.16993 a 123.11011,123.11 0 0 0 -17.73049,-2.39063 c -0.34,0 -0.34008,-0.16984 0.16992,-0.33984 10.22998,-2.39 22.83942,-3.75016 31.3594,-7.16016 l -0.16992,-0.16992 A 87.230079,87.23 0 0 1 152.41026,51.51943 c -0.34001,-0.51 -8e-5,-0.33992 0.16992,-0.16992 A 91.000082,91 0 0 0 187.0099,68.56045 63.160057,63.16 0 0 1 161.09972,39.07021 c 0,-0.085 4.6e-4,-0.21359 0.043,-0.27734 0.0213,-0.0319 0.0539,-0.0468 0.10157,-0.0332 z m 46.66606,32.95117 c 2.54,2.89997 4.26102,6.6488 9.54102,5.79883 -0.86,-1.53 -0.86071,-3.40977 -2.22071,-4.25977 a 26.460024,26.46 0 0 0 -3.58007,-0.67969 l 0.01,-0.01 a 26.650024,26.65 0 0 0 -3.75,-0.84961 z m -71.25788,29.67578 c -0.0637,0.15094 -0.79775,0.78797 -1.05273,1.04297 -8.01001,6.30998 -18.07032,20.61969 -14.32033,23.17969 1.19,0.85998 3.07172,0.17062 4.26172,-1.35938 a 19.130017,19.13 0 0 0 2.72852,-3.75 h 0.16992 a 13.230012,13.23 0 0 0 2.76173,4.06055 c 4.60998,4.25998 12.10862,5.78945 21.30861,4.93945 0,0 34.93046,-1.88018 48.40043,-19.41016 0,0 0.84961,-1.01992 0.84961,-0.16992 0.13,0.86 -10.05925,23.53047 -61.8692,25.23047 0,0 -2.38117,-0.19 -1.70117,1 0.68,1.53 26.25124,7.84012 50.45122,-4.08984 A 75.620068,75.62 0 0 0 204.83022,122 c 1.02,-0.68 1.33985,-0.51031 0.33985,0.67969 -6,7.49998 -34.76011,27.96021 -68.00006,18.24023 h -0.0195 c 0,0 -1.54071,-0.68008 -2.22071,0.16992 -0.51,0.51 0.001,1.0211 1.19141,1.8711 a 45.700041,45.7 0 0 0 25.39846,6.13867 c 14.48998,-0.85 24.02997,-6.30986 33.91995,-11.58984 0.17,-0.17 0.34,0.16976 0,0.50976 a 72.000065,72 0 0 1 -16.83009,10.57031 c -29.48997,12.94998 -47.55988,-4.26054 -49.08989,-2.56054 -1.19,1.36 3.40995,9 18.91994,15 a 59.400054,59.4 0 0 0 23.78127,2.2207 c 0.34,0 0.34,0.16992 0,0.16992 a 56.770051,56.77 0 0 1 -27.78127,-0.67969 42.210038,42.21 0 0 1 -16.18947,-9 c -2.22,-2.03998 -4.42883,-4.93976 -5.79883,-4.25976 -1.37,0.68 0.84961,4.08984 0.84961,4.08984 5.27998,10.40998 18.06965,19.10002 30.84964,22 0.51,0 0.51,0.16992 0,0.16992 a 62.460056,62.46 0 0 1 -17.39065,-4.59961 42.130038,42.13 0 0 1 -22.00002,-24.20117 c -0.17,-0.34 -0.33984,-0.34 -0.33984,0 a 39.130035,39.13 0 0 0 7.66993,20.6211 77.33007,77.33 0 0 0 6.65039,8.17968 25.680023,25.68 0 0 0 3.91993,3.58008 c 4.77,3.58 -12.4397,2.22002 -15.67971,7.5 a 50.210045,50.21 0 0 0 -2.90039,8.51953 33.14003,33.14 0 0 1 -2.90042,7.16016 c -0.17,0 -0.16976,0.34008 -0.50976,-0.16992 a 98.150088,98.15 0 0 1 -9.89064,-25.74024 73.160066,73.16 0 0 1 -2.000003,-17.20898 62.850057,62.85 0 0 1 2.220713,-16.87109 60.830055,60.83 0 0 1 35.4512,-41.08008 c 0.17,-0.09 0.22242,-0.0933 0.20117,-0.043 z m 58.32231,43.91016 c 19.54424,-0.0385 25.32152,11.82812 26.75589,15.34374 0,0.17 -0.16984,0.17 -0.33984,0 a 8.7600079,8.76 0 0 0 -8.34962,-1.87109 c -3.91999,1.03 -7.16063,6.48055 -2.39062,6.31055 a 25.620023,25.62 0 0 0 3.41015,-0.33985 c 2.39,-0.34 4.94002,-0.67961 7.50001,-0.84961 a 26.000023,26 0 0 1 15.16993,3.07032 11.750011,11.75 0 0 1 3.75,3.91992 c 0.17,0.34 1.54048,1.53867 2.73048,-1.36133 a 3.5700032,3.57 0 0 1 0.67969,-1 25.660023,25.66 0 0 1 3.75,-1.86914 8.4500076,8.45 0 0 0 3.91992,-3.41016 c 0,-0.17 0.16992,-7e-5 0.16992,0.16993 a 10.84001,10.84 0 0 1 -4.25976,9.19922 1.9400017,1.94 0 0 1 -1.36133,0.50976 c -4.09,-0.17 -2.89859,3.06992 -2.55859,3.91992 a 8.7500079,8.75 0 0 1 1,5.45117 33.900031,33.9 0 0 1 -2.90039,6.14063 13.670012,13.67 0 0 0 -0.84962,3.58008 c -0.17,1.53 1.19009,2.55984 3.58008,0.33984 a 0.8900008,0.89 0 0 1 0.67969,-0.33984 16.430015,16.43 0 0 1 4.08985,0 7.6500069,7.65 0 0 0 5.04102,-1.16211 11.00001,11 0 0 0 0.57813,-0.71875 c -0.34,0.68 -0.33977,0.67969 -0.50977,0.67969 v 0.01 a 7.6500069,7.65 0 0 1 -0.0684,0.0293 11.00001,11 0 0 1 -7.42188,5.42187 h -1 c -0.34,0 -0.50969,8e-5 -0.67969,-0.16992 -4.43001,-1.37 -4.93939,0.84922 -5.10939,1.69922 a 28.800026,28.8 0 0 1 -3.41015,11.25 c -1.53,2.22 -3.57938,3.92063 -5.10938,6.14062 -0.51,0.68 -3.23125,3.89844 2.21875,2.89844 h 0.67969 a 25.870023,25.87 0 0 1 4.77148,1.53125 10.000009,10 0 0 0 6.30861,0.33985 c 0.17,0 0.17,0.16984 0,0.33984 a 13.800012,13.8 0 0 1 -11.709,4.2793 3.2500029,3.25 0 0 1 -1.70117,-0.84961 c -4.43,-3.58 -4.76938,-0.66016 -5.10938,0.33984 a 54.000049,54 0 0 0 -2,7.5 20.510018,20.51 0 0 1 -2.90039,8.17969 c -2.9,3.74999 -9.2101,5.12055 -14.8301,6.31055 -2.7,0.67999 -3.73,2.72976 -1,4.25976 0.17,0.17 0.34172,0.16985 0.51172,0.33985 l 0.16992,0.16992 c 0.17,0.17 0.33977,0.51164 0.50976,0.68164 a 22.00002,22 0 0 1 1.35939,4.76953 10.220009,10.22 0 0 0 3.07031,5.61914 c 0.17,0.17 0.17008,0.16992 -0.16992,0.16992 a 13.930013,13.93 0 0 1 -9.89063,-7.5 2.8000025,2.8 0 0 1 -0.16993,-1.69922 c 0.39,-2.72999 -0.47,-3.58031 -2,-3.07031 a 24.880022,24.88 0 0 0 -5.80079,4.42969 22.840021,22.84 0 0 1 -6.30859,4.25976 13.190012,13.19 0 0 1 -8.86134,0 c -1.71,-0.51 -3.74867,-7e-5 -2.38867,3.91993 v 0.33984 a 1.8700017,1.87 0 0 1 0,1.36133 21.66002,21.66 0 0 1 -3.07032,4.59961 10.59001,10.59 0 0 0 -2.39063,6.65039 c 0,0.34 -0.16984,0.34 -0.33984,0 a 14.860013,14.86 0 0 1 -1,-13.64063 c 0.17,-0.17 0.16984,-0.33976 0.33984,-0.50976 v -0.16993 l 0.16992,-0.16992 c 1.36,-1.75 2.22016,-4.09 -0.33984,-3.75 a 40.590037,40.59 0 0 0 -4.42969,0.84961 10.84001,10.84 0 0 1 -6.14063,0.84961 c -2.43,-0.85 -3.23969,-2.89953 -4.42969,-4.76953 -0.73,-1.02 -2.90048,-1.69937 -2.73048,2.39062 a 2.6800024,2.68 0 0 1 -0.67969,2.21876 22.890021,22.89 0 0 1 -5.27929,3.75 15.000014,15 0 0 0 -5.44923,6.31054 c -0.17,0.34 -0.3418,0.17008 -0.3418,-0.16992 a 17.590016,17.59 0 0 1 4.7715,-15.33984 1.7000015,1.7 0 0 1 0.8496,-0.67969 c 3.24,-1.71 1.69985,-2.90031 0.33985,-3.07031 -3.92,-0.68 -8.02072,-0.34032 -9.72071,-3.07032 a 10.76001,10.76 0 0 1 -1.35934,-3.92016 c -0.17,-1.39 -1.54031,-3.25999 -3.07031,1 a 2.7900025,2.79 0 0 1 -1.18946,1.86914 40.690037,40.69 0 0 1 -6.31055,2.56055 14.180013,14.18 0 0 0 -7.00001,5.11133 c 0,0.17 -0.16992,-0.002 -0.16992,-0.3418 a 18.390017,18.39 0 0 1 8.34962,-14.31836 c 0.16999,-0.17 0.16984,-0.16992 0.33984,-0.16992 0.17,0 0.16984,-0.16992 0.33984,-0.16992 h 0.3418 c 5.29,-1.75 3.40851,-3.24 2.72852,-3.75 -3.41,-2.22 -7.32946,-3.92188 -8.68946,-7.67188 -1.39,-3.54999 0.83,-5.93 1,-9 0.17,-2.05 -2.05055,-1.70828 -2.56054,0.51172 a 3.6800033,3.68 0 0 1 -1.52931,2.38867 40.120036,40.12 0 0 1 -7.5,2.90039 16.820015,16.82 0 0 0 -8.1797,6 c -0.17,0.34 -0.33984,1.6e-4 -0.33984,-0.33984 a 21.550019,21.55 0 0 1 9.88868,-16.86914 h -0.01 c 2.9,-1.71 7.33148,0.16929 4.77149,-2.2207 a 5.9400054,5.94 0 0 0 -4.77149,-1.69922 c -0.17,0 -0.16992,-0.002 -0.16992,-0.17188 a 21.120019,21.12 0 0 0 4.94141,-10.39844 c 0.85,-3.90999 1.52961,-8.52015 4.59962,-10.91015 a 25.000023,25 0 0 1 10.4004,-2.90039 10.000009,10 0 0 1 9.19922,3.91992 10.520009,10.52 0 0 1 -2,13.81055 c -3.92,3.91999 -15.33095,4.42999 -13.46095,-3.75 0.17,-0.3 0.36133,0.69922 1.36133,1.69922 a 5.8100052,5.81 0 0 0 3.24023,1.18945 3.7100033,3.71 0 0 0 3.91993,-2.72852 c 0.34,-2.59999 -1.69984,-4.26156 -4.08985,-4.60156 -5.45,-1.02 -12.78102,3.91016 -9.54102,10.91016 a 6.690006,6.69 0 0 0 3.07032,3.07031 c 6.64999,3.24 14.49032,-1.69946 18.07032,-4.93945 0.34001,-0.17 0.50962,-0.50961 0.84962,-0.84961 l 0.50976,-0.50977 c 0.17,-0.17 0.16993,0.16992 0.16993,0.16992 -2.20001,9.19999 1.72,12.77961 7,12.09961 3.92,-0.51 5.61954,-5.78938 4.76954,-8.85937 a 2.4200022,2.42 0 0 1 -1,-0.3418 3.6900033,3.69 0 0 1 -1.35939,-5.10937 c 1.53001,-2.9 7.66986,-4.25969 11.58987,-4.42969 0.34,0 0.50992,0.16992 0.16992,0.16992 a 12.760012,12.76 0 0 0 -6.00001,2.73047 c -0.51,0.52 -1.18961,1.53867 -0.84961,2.38867 0.34,1.19 3.23992,0.68125 3.91992,1.53125 0.86,1.37 -0.8493,4.95055 -1.5293,6.31055 a 19.880018,19.88 0 0 0 -2.90039,5.27929 c 1.2,0 2.07032,-1.02117 3.07032,-1.70117 a 25.210023,25.21 0 0 0 5.2793,-4.25976 c 0.68,-0.68 2.03914,-2.04844 1.86914,-2.89844 -0.17,-0.85 -2.03922,-0.85125 -1.69922,-1.53125 1.88,-3.87 10.06025,-5.58 14.49025,-2 0.34,0.32 1.18961,1.17 0.84961,1 a 20.860019,20.86 0 0 0 -4.59961,-1.5293 c -1.20001,-0.17 -2.3904,-0.17023 -2.9004,0.50977 a 3.4100031,3.41 0 0 0 -0.33985,2.2207 12.790012,12.79 0 0 1 -7,10.0586 c -2.39,1.52999 -5.63055,1.5314 -6.31055,4.9414 a 4.2800039,4.28 0 0 0 2.56054,0.33984 13.550012,13.55 0 0 0 7.33009,-0.67968 c 1.24,-0.86 2.24024,-2.22047 3.24024,-2.73047 a 11.850011,11.85 0 0 1 14.00002,3.58008 c 0,0.17 -0.16985,0.33992 -0.33985,0.16992 -2.21001,-1.36 -5.61939,-3.57117 -8.85938,-1.70117 a 9.1300082,9.13 0 0 0 -2.56056,2.56054 c -0.69,1.03 -1.3707,2.56047 -2.2207,2.73047 -1.19,0.34 -2.22008,-0.50976 -3.58008,-0.50976 -2.72,0.22 -4.93954,3.21875 -8.51954,2.21875 -11.25,-3.41 -15.8504,-1.01992 -14.1504,7.33008 a 24.600022,24.6 0 0 0 6,9 c 5.45,4.79999 13.8012,6.31078 24.2012,5.80078 a 56.930051,56.93 0 0 0 13.00001,-2 64.800058,64.8 0 0 0 25.7383,-11.92969 c 5.79,-5.16 13.12119,-19.00001 16.70119,-28 a 83.110075,83.11 0 0 0 4.42969,-14 c 1,-5.62 1.73,-12.44133 -1,-16.36133 a 11.820011,11.82 0 0 0 -6.14064,-4.59961 31.920029,31.92 0 0 0 -10.57032,-1.69922 51.440046,51.44 0 0 1 -11.41993,0.67969 c -2.72,-0.17 -2.37914,4.95063 -1.86914,6.14062 1.36,3.58 8.00908,3.58008 13.28907,3.58008 0.34,0 0.34,0.16985 0,0.33985 a 48.110043,48.11 0 0 1 -11.9297,2.55859 25.310023,25.31 0 0 1 -17.38868,-5.10937 26.270024,26.27 0 0 1 -9.00001,-11.58985 c -0.17,-0.51 -1.5e-4,-0.51 0.33985,0 a 33.19003,33.19 0 0 0 7.66993,8.51953 14.640013,14.64 0 0 0 6.48047,2.73047 c 2.56,0.39 5.96852,0.22 6.47852,-2 0.47,-1.88 0.6907,-5.80055 -1.52929,-6.31054 a 2.9000026,2.9 0 0 1 -1.18946,-0.16993 13.900013,13.9 0 0 1 -10.4004,-16.69922 c 0,-0.34 0.16992,0 0.16992,0 a 15.390014,15.39 0 0 0 7.83985,11.92969 7.7000069,7.7 0 0 0 6.14063,0.50977 16.000014,16 0 0 0 5.79884,-6.82031 c 0.68,-2.89 -2.05017,-4.93915 -3.41017,-5.61915 a 49.130044,49.13 0 0 0 -13.63868,-4.42968 c -0.17,-0.17 -0.17007,-0.33985 0.16992,-0.33985 1.42813,-0.11437 2.79081,-0.17126 4.09375,-0.17382 z" />
  <metadata
     id="metadata1679">
    <rdf:RDF>
      <cc:Work
         rdf:about="">
        <dc:title>msi logo symbol</dc:title>
      </cc:Work>
    </rdf:RDF>
  </metadata>
</svg>
